<?xml version="1.0" encoding="UTF-8" standalone="no"?>
<svg
   xmlns:dc="http://purl.org/dc/elements/1.1/"
   xmlns:cc="http://creativecommons.org/ns#"
   xmlns:rdf="http://www.w3.org/1999/02/22-rdf-syntax-ns#"
   xmlns:svg="http://www.w3.org/2000/svg"
   xmlns="http://www.w3.org/2000/svg"
   xmlns:xlink="http://www.w3.org/1999/xlink"
   xmlns:sodipodi="http://sodipodi.sourceforge.net/DTD/sodipodi-0.dtd"
   xmlns:inkscape="http://www.inkscape.org/namespaces/inkscape"
   sodipodi:docname="locate_me_logo_raw.svg"
   inkscape:version="1.0 (4035a4fb49, 2020-05-01)"
   id="svg8"
   version="1.1"
   viewBox="0 0 210 297"
   height="297mm"
   width="210mm">
  <defs
     id="defs2">
    <linearGradient
       id="linearGradient921"
       inkscape:collect="always">
      <stop
         id="stop917"
         offset="0"
         style="stop-color:#000000;stop-opacity:1" />
      <stop
         id="stop919"
         offset="1"
         style="stop-color:#000000;stop-opacity:1" />
    </linearGradient>
    <linearGradient
       gradientUnits="userSpaceOnUse"
       y2="381.4841"
       x2="446.89148"
       y1="381.4841"
       x1="617.48102"
       id="linearGradient923"
       xlink:href="#linearGradient921"
       inkscape:collect="always" />
    <linearGradient
       gradientTransform="matrix(0.26458333,0,0,0.26458333,-1.2567707,0)"
       y2="381.4841"
       x2="446.89148"
       y1="381.4841"
       x1="617.48102"
       gradientUnits="userSpaceOnUse"
       id="linearGradient958"
       xlink:href="#linearGradient921"
       inkscape:collect="always" />
    <linearGradient
       gradientTransform="scale(0.26458333)"
       y2="381.4841"
       x2="446.89148"
       y1="381.4841"
       x1="617.48102"
       gradientUnits="userSpaceOnUse"
       id="linearGradient960"
       xlink:href="#linearGradient921"
       inkscape:collect="always" />
    <linearGradient
       gradientTransform="matrix(0.26458333,0,0,0.26458333,8.8966104,0)"
       y2="381.4841"
       x2="446.89148"
       y1="381.4841"
       x1="617.48102"
       gradientUnits="userSpaceOnUse"
       id="linearGradient962"
       xlink:href="#linearGradient921"
       inkscape:collect="always" />
    <linearGradient
       gradientTransform="matrix(0.26458333,0,0,0.26458333,2.9765615,0)"
       y2="381.4841"
       x2="446.89148"
       y1="381.4841"
       x1="617.48102"
       gradientUnits="userSpaceOnUse"
       id="linearGradient964"
       xlink:href="#linearGradient921"
       inkscape:collect="always" />
    <linearGradient
       gradientTransform="scale(0.26458333)"
       y2="381.4841"
       x2="446.89148"
       y1="381.4841"
       x1="617.48102"
       gradientUnits="userSpaceOnUse"
       id="linearGradient966"
       xlink:href="#linearGradient921"
       inkscape:collect="always" />
  </defs>
  <sodipodi:namedview
     inkscape:window-maximized="1"
     inkscape:window-y="-11"
     inkscape:window-x="-11"
     inkscape:window-height="2066"
     inkscape:window-width="3840"
     inkscape:guide-bbox="true"
     showguides="true"
     showgrid="false"
     inkscape:document-rotation="0"
     inkscape:current-layer="layer1"
     inkscape:document-units="mm"
     inkscape:cy="379.25588"
     inkscape:cx="741.10739"
     inkscape:zoom="4"
     inkscape:pageshadow="2"
     inkscape:pageopacity="0.0"
     borderopacity="1.0"
     bordercolor="#666666"
     pagecolor="#ffffff"
     id="base" />
  <metadata
     id="metadata5">
    <rdf:RDF>
      <cc:Work
         rdf:about="">
        <dc:format>image/svg+xml</dc:format>
        <dc:type
           rdf:resource="http://purl.org/dc/dcmitype/StillImage" />
        <dc:title></dc:title>
      </cc:Work>
    </rdf:RDF>
  </metadata>
  <g
     id="layer1"
     inkscape:groupmode="layer"
     inkscape:label="Layer 1">
    <g
       inkscape:export-ydpi="451.47125"
       inkscape:export-xdpi="451.47125"
       id="g998">
      <g
         style="font-weight:bold;font-size:20.4701px;line-height:1.25;font-family:'Franklin Gothic Medium';-inkscape-font-specification:'Franklin Gothic Medium, Bold';fill:#d40000;stroke-width:0.383815"
         id="text877-8"
         aria-label="M"
         transform="translate(-1.2567707)">
        <path
           id="path951"
           style="fill:#d40000;stroke-width:0.383815"
           d="m 170.31334,107.33508 h -2.50878 V 95.390859 l -3.77818,11.944221 h -1.28937 l -3.79816,-11.944221 v 11.944221 h -2.00903 V 93.691681 h 3.84814 l 2.85861,8.785749 2.80865,-8.785749 h 3.86812 z" />
      </g>
      <path
         style="font-weight:bold;font-size:20.4701px;line-height:1.25;font-family:'Franklin Gothic Medium';-inkscape-font-specification:'Franklin Gothic Medium, Bold';fill:url(#linearGradient958);fill-opacity:1;stroke-width:0.383815"
         d="m 157.14175,93.695572 v 2.108914 h 3.6282 v 11.534694 h 2.63912 V 95.804486 h 3.6282 v -2.108914 z"
         id="path933" />
      <path
         style="font-weight:bold;font-size:20.4701px;line-height:1.25;font-family:'Franklin Gothic Medium';-inkscape-font-specification:'Franklin Gothic Medium, Bold';fill:url(#linearGradient962);fill-opacity:1;stroke-width:0.383815"
         d="m 121.1779,93.695572 v 13.643608 h 8.39587 v -2.2288 h -5.80688 V 93.695572 Z"
         id="path929" />
      <path
         style="font-weight:bold;font-size:20.4701px;line-height:1.25;font-family:'Franklin Gothic Medium';-inkscape-font-specification:'Franklin Gothic Medium, Bold';fill:url(#linearGradient964);fill-opacity:1;stroke-width:0.383815"
         d="m 143.47412,93.485765 c -1.72584,0 -3.08178,0.653018 -4.06797,1.959054 -0.98619,1.299372 -1.4795,2.988395 -1.4795,5.067391 0,1.29271 0.21014,2.47581 0.62994,3.54862 0.4198,1.07282 1.01607,1.92232 1.78903,2.54868 0.77962,0.62637 1.79251,0.93948 3.03858,0.93948 1.47928,0 2.67185,-0.43972 3.57808,-1.3193 0.91289,-0.88623 1.44297,-2.0126 1.58956,-3.3786 l -2.27893,-0.2496 c -0.0666,0.78629 -0.35296,1.46242 -0.85938,2.02881 -0.50642,0.5664 -1.11951,0.84956 -1.83916,0.84956 -0.89957,0 -1.62298,-0.41976 -2.16938,-1.25935 -0.54641,-0.84626 -0.81959,-2.09556 -0.81959,-3.74809 0,-1.625882 0.25322,-2.865198 0.75965,-3.718119 0.51308,-0.859584 1.22966,-1.289328 2.14922,-1.289328 1.43264,0 2.35885,1.029179 2.77864,3.088185 l 2.27893,-0.239782 c -0.23322,-1.55258 -0.79955,-2.745144 -1.69912,-3.578074 -0.89956,-0.832932 -2.02593,-1.249537 -3.3786,-1.249537 z"
         id="path927" />
      <path
         id="path907"
         style="font-weight:bold;font-size:20.4701px;line-height:1.25;font-family:'Franklin Gothic Medium';-inkscape-font-specification:'Franklin Gothic Medium, Bold';fill:#000000;fill-opacity:1;stroke-width:0.383815"
         d="m 178.45109,107.33909 h -8.86571 V 93.695687 h 8.77576 v 2.029018 h -6.31695 v 3.698212 h 5.07754 v 1.979043 h -5.07754 v 3.81815 h 6.4069 z" />
      <g
         id="g980"
         transform="translate(7.0776011)">
        <path
           id="path897"
           d="m 127.61391,93.485765 c -1.75915,0 -3.1755,0.669827 -4.24832,2.00918 -1.07281,1.33269 -1.6092,2.991768 -1.6092,4.977475 0,1.99903 0.50329,3.67808 1.50947,5.03742 1.01285,1.35934 2.42553,2.03915 4.23798,2.03915 1.76582,0 3.18165,-0.64619 4.24781,-1.9389 1.07281,-1.29937 1.6092,-3.00204 1.6092,-5.1077 0,-2.005692 -0.51643,-3.674755 -1.54926,-5.007445 -1.02617,-1.339353 -2.4252,-2.00918 -4.19768,-2.00918 z"
           style="font-weight:bold;font-size:20.4701px;line-height:1.25;font-family:'Franklin Gothic Medium';-inkscape-font-specification:'Franklin Gothic Medium, Bold';fill:url(#linearGradient966);fill-opacity:1;stroke-width:0.383815" />
        <path
           id="path935"
           d="m 127.57361,95.464973 c 1.06614,0 1.8526,0.44655 2.35902,1.339453 0.50643,0.886238 0.75965,2.111904 0.75965,3.677814 0,1.92574 -0.3068,3.2554 -0.91984,3.98838 -0.61303,0.73298 -1.3622,1.09916 -2.24844,1.09916 -0.99952,0 -1.76917,-0.42292 -2.3089,-1.26917 -0.53308,-0.85292 -0.79996,-2.10222 -0.79996,-3.74809 0,-3.391695 1.05281,-5.087547 3.15847,-5.087547 z"
           style="font-weight:bold;font-size:20.4701px;line-height:1.25;font-family:'Franklin Gothic Medium';-inkscape-font-specification:'Franklin Gothic Medium, Bold';fill:#ffffff;fill-opacity:1;stroke-width:0.383815" />
      </g>
      <g
         id="g984">
        <path
           id="path931"
           d="m 150.64248,93.695572 -4.52789,13.643608 h 2.0991 l 1.0697,-3.24838 h 5.24723 l 1.08934,3.24838 h 2.62878 l -4.5775,-13.643608 z"
           style="font-weight:bold;font-size:20.4701px;line-height:1.25;font-family:'Franklin Gothic Medium';-inkscape-font-specification:'Franklin Gothic Medium, Bold';fill:url(#linearGradient960);fill-opacity:1;stroke-width:0.383815" />
        <path
           id="path937"
           d="m 151.8822,96.034446 1.98903,6.086964 h -3.97806 z"
           style="font-weight:bold;font-size:20.4701px;line-height:1.25;font-family:'Franklin Gothic Medium';-inkscape-font-specification:'Franklin Gothic Medium, Bold';fill:#ffffff;fill-opacity:1;stroke-width:0.383815" />
      </g>
    </g>
  </g>
</svg>
